# Blender 4.2.0 Alpha
# www.blender.org
mtllib drawer.mtl
o drawer_back.001
v -0.275000 0.208000 -0.257500
v -0.295000 0.208000 -0.257500
v -0.295000 0.208000 0.257500
v -0.275000 0.208000 0.257500
v -0.295000 0.108000 0.257500
v -0.295000 0.108000 -0.257500
v -0.275000 0.108000 -0.257500
v -0.275000 0.108000 0.257500
vn -0.0000 1.0000 -0.0000
vn -0.0000 -1.0000 -0.0000
vn -0.0000 -0.0000 -1.0000
vn -0.0000 -0.0000 1.0000
vn 1.0000 -0.0000 -0.0000
vn -1.0000 -0.0000 -0.0000
s 0
usemtl white_wooden
f 1//1 2//1 3//1 4//1
f 5//2 6//2 7//2 8//2
f 1//3 7//3 6//3 2//3
f 5//4 8//4 4//4 3//4
f 1//5 4//5 8//5 7//5
f 5//6 3//6 2//6 6//6
o drawer_front.001
v 0.312500 0.248000 -0.307500
v 0.297500 0.248000 -0.307500
v 0.297500 0.248000 0.307500
v 0.312500 0.248000 0.307500
v 0.297500 0.108000 0.307500
v 0.297500 0.108000 -0.307500
v 0.312500 0.108000 -0.307500
v 0.312500 0.108000 0.307500
vn -0.0000 1.0000 -0.0000
vn -0.0000 -1.0000 -0.0000
vn -0.0000 -0.0000 -1.0000
vn -0.0000 -0.0000 1.0000
vn 1.0000 -0.0000 -0.0000
vn -1.0000 -0.0000 -0.0000
s 0
use gray_wooden
f 9//7 10//7 11//7 12//7
f 13//8 14//8 15//8 16//8
f 9//9 15//9 14//9 10//9
f 13//10 16//10 12//10 11//10
f 9//11 12//11 16//11 15//11
f 13//12 11//12 10//12 14//12
o drawer_interior_bottom.001
v 0.275000 0.128000 -0.257500
v -0.275000 0.128000 -0.257500
v -0.275000 0.128000 0.257500
v 0.275000 0.128000 0.257500
v -0.275000 0.108000 0.257500
v -0.275000 0.108000 -0.257500
v 0.275000 0.108000 -0.257500
v 0.275000 0.108000 0.257500
vn -0.0000 1.0000 -0.0000
vn -0.0000 -1.0000 -0.0000
vn -0.0000 -0.0000 -1.0000
vn -0.0000 -0.0000 1.0000
vn 1.0000 -0.0000 -0.0000
vn -1.0000 -0.0000 -0.0000
s 0
usemtl white_wooden
f 17//13 18//13 19//13 20//13
f 21//14 22//14 23//14 24//14
f 17//15 23//15 22//15 18//15
f 21//16 24//16 20//16 19//16
f 17//17 20//17 24//17 23//17
f 21//18 19//18 18//18 22//18
o drawer_interior_front.002
v 0.295000 0.208000 -0.257500
v 0.275000 0.208000 -0.257500
v 0.275000 0.208000 0.257500
v 0.295000 0.208000 0.257500
v 0.275000 0.108000 0.257500
v 0.275000 0.108000 -0.257500
v 0.295000 0.108000 -0.257500
v 0.295000 0.108000 0.257500
vn -0.0000 1.0000 -0.0000
vn -0.0000 -1.0000 -0.0000
vn -0.0000 -0.0000 -1.0000
vn -0.0000 -0.0000 1.0000
vn 1.0000 -0.0000 -0.0000
vn -1.0000 -0.0000 -0.0000
s 0
usemtl white_wooden
f 25//19 26//19 27//19 28//19
f 29//20 30//20 31//20 32//20
f 25//21 31//21 30//21 26//21
f 29//22 32//22 28//22 27//22
f 25//23 28//23 32//23 31//23
f 29//24 27//24 26//24 30//24
o drawer_left.001
v 0.295000 0.208000 0.257500
v -0.295000 0.208000 0.257500
v -0.295000 0.208000 0.277500
v 0.295000 0.208000 0.277500
v -0.295000 0.108000 0.277500
v -0.295000 0.108000 0.257500
v 0.295000 0.108000 0.257500
v 0.295000 0.108000 0.277500
vn -0.0000 1.0000 -0.0000
vn -0.0000 -1.0000 -0.0000
vn -0.0000 -0.0000 -1.0000
vn -0.0000 -0.0000 1.0000
vn 1.0000 -0.0000 -0.0000
vn -1.0000 -0.0000 -0.0000
s 0
usemtl white_wooden
f 33//25 34//25 35//25 36//25
f 37//26 38//26 39//26 40//26
f 33//27 39//27 38//27 34//27
f 37//28 40//28 36//28 35//28
f 33//29 36//29 40//29 39//29
f 37//30 35//30 34//30 38//30
o drawer_right
v 0.295000 0.208000 -0.277500
v -0.295000 0.208000 -0.277500
v -0.295000 0.208000 -0.257500
v 0.295000 0.208000 -0.257500
v -0.295000 0.108000 -0.257500
v -0.295000 0.108000 -0.277500
v 0.295000 0.108000 -0.277500
v 0.295000 0.108000 -0.257500
vn -0.0000 1.0000 -0.0000
vn -0.0000 -1.0000 -0.0000
vn -0.0000 -0.0000 -1.0000
vn -0.0000 -0.0000 1.0000
vn 1.0000 -0.0000 -0.0000
vn -1.0000 -0.0000 -0.0000
s 0
usemtl white_wooden
f 41//31 42//31 43//31 44//31
f 45//32 46//32 47//32 48//32
f 41//33 47//33 46//33 42//33
f 45//34 48//34 44//34 43//34
f 41//35 44//35 48//35 47//35
f 45//36 43//36 42//36 46//36
o handle2
v 0.342500 0.200500 -0.052500
v 0.322500 0.200500 -0.052500
v 0.322500 0.200500 -0.047500
v 0.342500 0.200500 -0.047500
v 0.322500 0.195500 -0.047500
v 0.322500 0.195500 -0.052500
v 0.342500 0.195500 -0.052500
v 0.342500 0.195500 -0.047500
v 0.345000 0.200500 -0.050000
v 0.340000 0.200500 -0.050000
v 0.340000 0.200500 0.050000
v 0.345000 0.200500 0.050000
v 0.340000 0.195500 0.050000
v 0.340000 0.195500 -0.050000
v 0.345000 0.195500 -0.050000
v 0.345000 0.195500 0.050000
v 0.342500 0.200500 0.047500
v 0.322500 0.200500 0.047500
v 0.322500 0.200500 0.052500
v 0.342500 0.200500 0.052500
v 0.322500 0.195500 0.052500
v 0.322500 0.195500 0.047500
v 0.342500 0.195500 0.047500
v 0.342500 0.195500 0.052500
vn -0.0000 1.0000 -0.0000
vn -0.0000 -1.0000 -0.0000
vn -0.0000 -0.0000 -1.0000
vn -0.0000 -0.0000 1.0000
vn 1.0000 -0.0000 -0.0000
vn -1.0000 -0.0000 -0.0000
s 0
usemtl black
f 49//37 50//37 51//37 52//37
f 53//38 54//38 55//38 56//38
f 49//39 55//39 54//39 50//39
f 53//40 56//40 52//40 51//40
f 49//41 52//41 56//41 55//41
f 53//42 51//42 50//42 54//42
f 57//37 58//37 59//37 60//37
f 61//38 62//38 63//38 64//38
f 57//39 63//39 62//39 58//39
f 61//40 64//40 60//40 59//40
f 57//41 60//41 64//41 63//41
f 61//42 59//42 58//42 62//42
f 65//37 66//37 67//37 68//37
f 69//38 70//38 71//38 72//38
f 65//39 71//39 70//39 66//39
f 69//40 72//40 68//40 67//40
f 65//41 68//41 72//41 71//41
f 69//42 67//42 66//42 70//42
